<?xml version="1.0" encoding="UTF-8" standalone="no"?>
<!-- Created with Inkscape (http://www.inkscape.org/) -->

<svg
   xmlns:dc="http://purl.org/dc/elements/1.1/"
   xmlns:cc="http://creativecommons.org/ns#"
   xmlns:rdf="http://www.w3.org/1999/02/22-rdf-syntax-ns#"
   xmlns:svg="http://www.w3.org/2000/svg"
   xmlns="http://www.w3.org/2000/svg"
   xmlns:xlink="http://www.w3.org/1999/xlink"
   xmlns:sodipodi="http://sodipodi.sourceforge.net/DTD/sodipodi-0.dtd"
   xmlns:inkscape="http://www.inkscape.org/namespaces/inkscape"
   version="1.0"
   id="svg2"
   sodipodi:version="0.32"
   inkscape:version="0.91 r13725"
   sodipodi:docname="python-logo-coin.svg"
   width="10.192776cm"
   height="10.227423cm">
  <title
     id="title4180">Python-VSCode Challenge Coin</title>
  <metadata
     id="metadata371">
    <rdf:RDF>
      <cc:Work
         rdf:about="">
        <dc:format>image/svg+xml</dc:format>
        <dc:type
           rdf:resource="http://purl.org/dc/dcmitype/StillImage" />
        <dc:title>Python-VSCode Challenge Coin</dc:title>
      </cc:Work>
    </rdf:RDF>
  </metadata>
  <sodipodi:namedview
     inkscape:window-height="1147"
     inkscape:window-width="1920"
     inkscape:pageshadow="2"
     inkscape:pageopacity="0.0"
     guidetolerance="10.0"
     gridtolerance="10.0"
     objecttolerance="10.0"
     borderopacity="1.0"
     bordercolor="#666666"
     pagecolor="#ffffff"
     id="base"
     inkscape:zoom="2.1461642"
     inkscape:cx="127.53144"
     inkscape:cy="167.52081"
     inkscape:window-x="-8"
     inkscape:window-y="-8"
     inkscape:current-layer="layer1"
     width="210mm"
     height="40mm"
     units="cm"
     showgrid="false"
     fit-margin-top="100"
     fit-margin-left="100"
     fit-margin-right="100"
     fit-margin-bottom="100"
     inkscape:window-maximized="1"
     inkscape:document-units="pt" />
  <defs
     id="defs4">
    <linearGradient
       id="linearGradient4671">
      <stop
         style="stop-color:#ffd43b;stop-opacity:1;"
         offset="0"
         id="stop4673" />
      <stop
         style="stop-color:#ffe873;stop-opacity:1"
         offset="1"
         id="stop4675" />
    </linearGradient>
    <linearGradient
       id="linearGradient4689">
      <stop
         style="stop-color:#5a9fd4;stop-opacity:1;"
         offset="0"
         id="stop4691" />
      <stop
         style="stop-color:#306998;stop-opacity:1;"
         offset="1"
         id="stop4693" />
    </linearGradient>
    <linearGradient
       inkscape:collect="always"
       xlink:href="#linearGradient4671"
       id="linearGradient1475"
       gradientUnits="userSpaceOnUse"
       gradientTransform="matrix(0.562541,0,0,0.567972,110.00888,113.29763)"
       x1="150.96111"
       y1="192.35176"
       x2="112.03144"
       y2="137.27299" />
    <linearGradient
       inkscape:collect="always"
       xlink:href="#linearGradient4689"
       id="linearGradient1478"
       gradientUnits="userSpaceOnUse"
       gradientTransform="matrix(0.562541,0,0,0.567972,110.00888,113.29763)"
       x1="26.648937"
       y1="20.603781"
       x2="135.66525"
       y2="114.39767" />
  </defs>
  <path
     style="fill:url(#linearGradient1478);fill-opacity:1"
     d="m 179.91879,125.00092 c -4.58366,0.0213 -8.96094,0.41222 -12.8125,1.09375 -11.34622,2.0045 -13.40625,6.2001 -13.40625,13.9375 l 0,10.21875 26.8125,0 0,3.40625 -26.8125,0 -10.0625,0 c -7.79246,0 -14.61576,4.68372 -16.75,13.59375 -2.46182,10.21297 -2.57102,16.58602 0,27.25 1.90592,7.93785 6.45754,13.59375 14.25,13.59375 l 9.21875,0 0,-12.25 c 0,-8.8499 7.65714,-16.65625 16.75,-16.65625 l 26.78125,0 c 7.45495,0 13.40625,-6.13816 13.40625,-13.625 l 0,-25.53125 c 0,-7.26634 -6.12998,-12.72478 -13.40625,-13.9375 -4.60599,-0.76673 -9.3851,-1.11505 -13.96875,-1.09375 z m -14.5,8.21875 c 2.76954,0 5.03125,2.29865 5.03125,5.125 -1e-5,2.81634 -2.26171,5.09375 -5.03125,5.09375 -2.77948,0 -5.03125,-2.27742 -5.03125,-5.09375 -1e-5,-2.82635 2.25177,-5.125 5.03125,-5.125 z"
     id="path1948"
     inkscape:connector-curvature="0" />
  <path
     style="fill:url(#linearGradient1475);fill-opacity:1"
     d="m 210.63754,153.65717 0,11.90625 c 0,9.23075 -7.8259,17 -16.75,17 l -26.78125,0 c -7.33584,0 -13.40625,6.27848 -13.40625,13.625 l 0,25.53124 c 0,7.26634 6.31858,11.54032 13.40625,13.625 8.48733,2.49561 16.62623,2.94663 26.78125,0 6.75015,-1.95439 13.40625,-5.88761 13.40625,-13.625 l 0,-10.21874 -26.78125,0 0,-3.40625 26.78125,0 13.40625,0 c 7.79246,0 10.69625,-5.43541 13.40624,-13.59375 2.79933,-8.39889 2.68022,-16.47578 0,-27.25 -1.92578,-7.75744 -5.60387,-13.59375 -13.40624,-13.59375 l -10.0625,0 z m -15.0625,64.65625 c 2.77947,0 5.03125,2.27741 5.03125,5.09374 -1e-5,2.82635 -2.25178,5.125 -5.03125,5.125 -2.76955,0 -5.03125,-2.29865 -5.03125,-5.125 0,-2.81633 2.26169,-5.09374 5.03125,-5.09374 z"
     id="path1950"
     inkscape:connector-curvature="0" />
  <g
     inkscape:groupmode="layer"
     id="layer1"
     inkscape:label="Coin Outline">
    <ellipse
       style="fill:none;stroke:#000000;stroke-width:0.20231038;stroke-linejoin:bevel;stroke-miterlimit:4;stroke-dasharray:none;stroke-opacity:1"
       id="path4183"
       cx="180.55469"
       cy="181.13539"
       rx="180.50352"
       ry="181.20245" />
    <ellipse
       style="fill:none;stroke:#000000;stroke-width:0.17297538;stroke-linejoin:bevel;stroke-miterlimit:4;stroke-dasharray:none;stroke-opacity:1"
       id="path4183-0"
       cx="178.92387"
       cy="180.66945"
       rx="154.33052"
       ry="154.9281" />
  </g>
</svg>
