<?xml version="1.0" encoding="UTF-8" standalone="no"?>
<!-- Created with Inkscape (http://www.inkscape.org/) -->

<svg
   xmlns:dc="http://purl.org/dc/elements/1.1/"
   xmlns:cc="http://creativecommons.org/ns#"
   xmlns:rdf="http://www.w3.org/1999/02/22-rdf-syntax-ns#"
   xmlns:svg="http://www.w3.org/2000/svg"
   xmlns="http://www.w3.org/2000/svg"
   xmlns:sodipodi="http://sodipodi.sourceforge.net/DTD/sodipodi-0.dtd"
   xmlns:inkscape="http://www.inkscape.org/namespaces/inkscape"
   version="1.0"
   id="svg2"
   sodipodi:version="0.32"
   inkscape:version="0.91 r13725"
   sodipodi:docname="python-logo-coin.svg"
   width="10.192776cm"
   height="10.227423cm">
  <title
     id="title4180">Python-VSCode Challenge Coin</title>
  <metadata
     id="metadata371">
    <rdf:RDF>
      <cc:Work
         rdf:about="">
        <dc:format>image/svg+xml</dc:format>
        <dc:type
           rdf:resource="http://purl.org/dc/dcmitype/StillImage" />
        <dc:title>Python-VSCode Challenge Coin</dc:title>
      </cc:Work>
    </rdf:RDF>
  </metadata>
  <sodipodi:namedview
     inkscape:window-height="1147"
     inkscape:window-width="1920"
     inkscape:pageshadow="2"
     inkscape:pageopacity="0.0"
     guidetolerance="10.0"
     gridtolerance="10.0"
     objecttolerance="10.0"
     borderopacity="1.0"
     bordercolor="#666666"
     pagecolor="#ffffff"
     id="base"
     inkscape:zoom="2.1461642"
     inkscape:cx="127.53144"
     inkscape:cy="167.52081"
     inkscape:window-x="1912"
     inkscape:window-y="-8"
     inkscape:current-layer="svg2"
     width="210mm"
     height="40mm"
     units="cm"
     showgrid="false"
     fit-margin-top="100"
     fit-margin-left="100"
     fit-margin-right="100"
     fit-margin-bottom="100"
     inkscape:window-maximized="1"
     inkscape:document-units="pt" />
  <defs
     id="defs4">
    <linearGradient
       id="linearGradient4671">
      <stop
         style="stop-color:#ffd43b;stop-opacity:1;"
         offset="0"
         id="stop4673" />
      <stop
         style="stop-color:#ffe873;stop-opacity:1"
         offset="1"
         id="stop4675" />
    </linearGradient>
    <linearGradient
       id="linearGradient4689">
      <stop
         style="stop-color:#5a9fd4;stop-opacity:1;"
         offset="0"
         id="stop4691" />
      <stop
         style="stop-color:#306998;stop-opacity:1;"
         offset="1"
         id="stop4693" />
    </linearGradient>
  </defs>
  <path
     style="fill:#000000;fill-opacity:1;stroke:#000000;stroke-opacity:1"
     d="m 129.76832,60.700582 c -6.62024,0.03119 -12.94241,0.603628 -18.50527,1.601616 -16.387489,2.935259 -19.36282,9.07903 -19.36282,20.40917 l 0,14.963674 38.72565,0 0,4.987888 -38.72565,0 -14.5334,0 c -11.254752,0 -21.109734,6.85854 -24.192245,19.90581 -3.555638,14.9552 -3.713357,24.28748 0,39.90312 2.752746,11.62367 9.32671,19.9058 20.581465,19.9058 l 13.31476,0 0,-17.9381 c 0,-12.95922 11.059311,-24.39033 24.19224,-24.39033 l 38.68051,0 c 10.76729,0 19.36283,-8.98832 19.36283,-19.95156 l 0,-37.386302 c 0,-10.64035 -8.85361,-18.633342 -19.36283,-20.40917 -6.65249,-1.122749 -13.55502,-1.632806 -20.17524,-1.601616 z m -20.94254,12.035006 c 4.00008,0 7.2667,3.36599 7.2667,7.50472 -2e-5,4.12406 -3.26662,7.45895 -7.2667,7.45895 -4.01444,0 -7.2667,-3.3349 -7.2667,-7.45895 -2e-5,-4.13873 3.25226,-7.50472 7.2667,-7.50472 z"
     id="path1948"
     inkscape:connector-curvature="0" />
  <path
     style="fill:#000000;fill-opacity:1;stroke:#000000;stroke-opacity:1"
     d="m 174.13581,102.66293 0,17.43474 c 0,13.51691 -11.30305,24.89369 -24.19225,24.89369 l -38.68051,0 c -10.59524,0 -19.36282,9.1938 -19.36282,19.95157 l 0,37.38628 c 0,10.64036 9.12601,16.89889 19.36282,19.95156 12.25837,3.65441 24.01349,4.31486 38.68051,0 9.74933,-2.86188 19.36283,-8.62143 19.36283,-19.95156 l 0,-14.96366 -38.68051,0 0,-4.98789 38.68051,0 19.36282,0 c 11.25475,0 15.44873,-7.95926 19.36281,-19.9058 4.04311,-12.29879 3.87107,-24.12606 0,-39.90312 -2.78143,-11.35949 -8.09375,-19.90581 -19.36281,-19.90581 l -14.5334,0 z m -21.75497,94.6784 c 4.01443,0 7.2667,3.3349 7.2667,7.45895 -1e-5,4.13872 -3.25227,7.50471 -7.2667,7.50471 -4.00009,0 -7.2667,-3.36599 -7.2667,-7.50471 0,-4.12405 3.26659,-7.45895 7.2667,-7.45895 z"
     id="path1950"
     inkscape:connector-curvature="0" />
  <g
     inkscape:groupmode="layer"
     id="layer1"
     inkscape:label="Coin Outline">
    <ellipse
       style="fill:none;stroke:#000000;stroke-width:0.20231038;stroke-linejoin:bevel;stroke-miterlimit:4;stroke-dasharray:none;stroke-opacity:1"
       id="path4183"
       cx="180.55469"
       cy="181.13539"
       rx="180.50352"
       ry="181.20245" />
    <ellipse
       style="fill:none;stroke:#000000;stroke-width:0.17297538;stroke-linejoin:bevel;stroke-miterlimit:4;stroke-dasharray:none;stroke-opacity:1"
       id="path4183-0"
       cx="178.92387"
       cy="180.66945"
       rx="154.33052"
       ry="154.9281" />
  </g>
  <path
     inkscape:connector-curvature="0"
     d="m 227.71229,53.000156 0,207.295344 -180.652223,-26.88307 180.652223,60.94789 60.22404,-25.10078 0,-187.41634 0.0199,-0.0093 -0.0199,-0.03992 0,-3.691502 -60.22404,-25.102592 z"
     id="path951"
     style="fill:#000000;fill-opacity:1;stroke:#000000;stroke-opacity:1" />
</svg>
