<?xml version="1.0" encoding="UTF-8" standalone="no"?>
<!-- Created with Inkscape (http://www.inkscape.org/) -->

<svg
   xmlns:dc="http://purl.org/dc/elements/1.1/"
   xmlns:cc="http://creativecommons.org/ns#"
   xmlns:rdf="http://www.w3.org/1999/02/22-rdf-syntax-ns#"
   xmlns:svg="http://www.w3.org/2000/svg"
   xmlns="http://www.w3.org/2000/svg"
   xmlns:sodipodi="http://sodipodi.sourceforge.net/DTD/sodipodi-0.dtd"
   xmlns:inkscape="http://www.inkscape.org/namespaces/inkscape"
   version="1.0"
   id="svg2"
   sodipodi:version="0.32"
   inkscape:version="0.91 r13725"
   sodipodi:docname="python-logo-coin.svg"
   width="10.192776cm"
   height="10.227423cm">
  <title
     id="title4180">Python-VSCode Challenge Coin</title>
  <metadata
     id="metadata371">
    <rdf:RDF>
      <cc:Work
         rdf:about="">
        <dc:format>image/svg+xml</dc:format>
        <dc:type
           rdf:resource="http://purl.org/dc/dcmitype/StillImage" />
        <dc:title>Python-VSCode Challenge Coin</dc:title>
      </cc:Work>
    </rdf:RDF>
  </metadata>
  <sodipodi:namedview
     inkscape:window-height="1147"
     inkscape:window-width="1920"
     inkscape:pageshadow="2"
     inkscape:pageopacity="0.0"
     guidetolerance="10.0"
     gridtolerance="10.0"
     objecttolerance="10.0"
     borderopacity="1.0"
     bordercolor="#666666"
     pagecolor="#ffffff"
     id="base"
     inkscape:zoom="1.8101934"
     inkscape:cx="220.99981"
     inkscape:cy="156.45819"
     inkscape:window-x="1912"
     inkscape:window-y="-8"
     inkscape:current-layer="layer1"
     width="210mm"
     height="40mm"
     units="in"
     showgrid="false"
     fit-margin-top="100"
     fit-margin-left="100"
     fit-margin-right="100"
     fit-margin-bottom="100"
     inkscape:window-maximized="1"
     inkscape:document-units="pt" />
  <defs
     id="defs4">
    <linearGradient
       id="linearGradient4671">
      <stop
         style="stop-color:#ffd43b;stop-opacity:1;"
         offset="0"
         id="stop4673" />
      <stop
         style="stop-color:#ffe873;stop-opacity:1"
         offset="1"
         id="stop4675" />
    </linearGradient>
    <linearGradient
       id="linearGradient4689">
      <stop
         style="stop-color:#5a9fd4;stop-opacity:1;"
         offset="0"
         id="stop4691" />
      <stop
         style="stop-color:#306998;stop-opacity:1;"
         offset="1"
         id="stop4693" />
    </linearGradient>
  </defs>
  <path
     style="fill:#000000;fill-opacity:1;stroke:#000000;stroke-width:0.89999998;stroke-opacity:1"
     d="m 144.61465,79.249359 c -5.95821,0.02807 -11.64817,0.543266 -16.65474,1.441455 -14.74874,2.641733 -17.42653,8.171127 -17.42653,18.368253 l 0,13.467303 34.85308,0 0,4.4891 -34.85308,0 -13.080065,0 c -10.129277,0 -18.998761,6.17269 -21.773021,17.91523 -3.200074,13.45968 -3.342021,21.85873 0,35.91281 2.477472,10.4613 8.394039,17.91522 18.523319,17.91522 l 11.983287,0 0,-16.14429 c 0,-11.6633 9.95337,-21.9513 21.77301,-21.9513 l 34.81246,0 c 9.69056,0 17.42655,-8.08949 17.42655,-17.9564 l 0,-33.647673 c 0,-9.576315 -7.96825,-16.770008 -17.42655,-18.368253 -5.98724,-1.010474 -12.19952,-1.469526 -18.15772,-1.441455 z m -18.84828,10.831506 c 3.60007,0 6.54003,3.029391 6.54003,6.754248 -2e-5,3.711657 -2.93996,6.713057 -6.54003,6.713057 -3.613,0 -6.54003,-3.00141 -6.54003,-6.713057 -2e-5,-3.724857 2.92703,-6.754248 6.54003,-6.754248 z"
     id="path1948"
     inkscape:connector-curvature="0" />
  <path
     style="fill:#000000;fill-opacity:1;stroke:#000000;stroke-width:0.89999998;stroke-opacity:1"
     d="m 184.54539,117.01547 0,15.69127 c 0,12.16521 -10.17274,22.40432 -21.77302,22.40432 l -34.81246,0 c -9.53572,0 -17.42653,8.27442 -17.42653,17.95641 l 0,33.64765 c 0,9.57633 8.2134,15.209 17.42653,17.95641 11.03253,3.28896 21.61214,3.88337 34.81246,0 8.7744,-2.5757 17.42655,-7.75929 17.42655,-17.95641 l 0,-13.46729 -34.81246,0 0,-4.4891 34.81246,0 17.42653,0 c 10.12928,0 13.90386,-7.16334 17.42653,-17.91522 3.6388,-11.06891 3.48397,-21.71346 0,-35.91281 -2.50328,-10.22354 -7.28437,-17.91523 -17.42653,-17.91523 l -13.08006,0 z m -19.57947,85.21056 c 3.61299,0 6.54003,3.00141 6.54003,6.71305 -1e-5,3.72485 -2.92704,6.75424 -6.54003,6.75424 -3.60008,0 -6.54003,-3.02939 -6.54003,-6.75424 0,-3.71164 2.93993,-6.71305 6.54003,-6.71305 z"
     id="path1950"
     inkscape:connector-curvature="0" />
  <g
     inkscape:groupmode="layer"
     id="layer1"
     inkscape:label="Coin Outline">
    <ellipse
       style="fill:none;stroke:#000000;stroke-width:0.20231038;stroke-linejoin:bevel;stroke-miterlimit:4;stroke-dasharray:none;stroke-opacity:1"
       id="path4183"
       cx="180.55469"
       cy="181.13539"
       rx="180.50352"
       ry="181.20245" />
    <ellipse
       style="fill:none;stroke:#000000;stroke-width:0.16086709;stroke-linejoin:bevel;stroke-miterlimit:4;stroke-dasharray:none;stroke-opacity:1"
       id="path4183-0"
       cx="178.92387"
       cy="180.66945"
       rx="143.52739"
       ry="144.08313" />
    <ellipse
       style="fill:none;stroke:#000000;stroke-width:0.19432321;stroke-linejoin:bevel;stroke-miterlimit:4;stroke-dasharray:none;stroke-opacity:1"
       id="path4183-0-6"
       cx="180.6582"
       cy="181.11444"
       rx="173.3773"
       ry="174.04861"
       inkscape:transform-center-y="-5.065671" />
    <path
       style="fill:#000000;stroke:#000000;stroke-width:0.04659476;stroke-linejoin:bevel;stroke-miterlimit:4;stroke-dasharray:none;stroke-opacity:1;fill-opacity:1"
       d="M 168.90758,354.48423 C 135.93592,352.11014 104.54437,340.54334 78.280782,321.09109 42.01659,294.23185 17.414291,254.26817 10.07046,210.29105 8.2169638,199.19174 7.9225367,195.14956 7.9323049,180.93635 7.9423246,166.35709 8.4561693,160.08197 10.545894,149.01894 20.662739,95.460226 55.214075,49.748391 103.98366,25.399647 154.56165,0.14803891 215.33232,1.5981847 264.63418,29.233186 c 22.18212,12.433669 41.85225,30.053037 56.74122,50.825516 25.43921,35.491748 36.49396,79.808968 30.85872,123.709078 -6.71008,52.27341 -37.69614,99.51613 -82.98627,126.52454 -21.70908,12.94604 -44.30154,20.56743 -69.58773,23.47487 -7.92074,0.91074 -23.13556,1.2655 -30.75254,0.71704 z m 25.39415,-30.2737 c 27.4477,-3.10116 52.45858,-13.37156 73.99145,-30.38362 7.23756,-5.71803 19.35897,-18.15999 24.90241,-25.56093 15.57899,-20.79921 24.8183,-43.15749 28.31311,-68.51509 1.02813,-7.45988 1.40821,-23.03518 0.74908,-30.6962 C 319.31111,134.80557 305.20666,103.75881 281.74969,79.88817 269.5062,67.428755 257.9225,58.933072 242.99325,51.463522 210.03995,34.976005 172.43755,31.838808 136.84314,42.607339 117.01422,48.606268 96.518985,60.409623 81.701321,74.363914 65.017579,90.07555 53.748726,106.36766 45.53392,126.65346 c -9.686663,23.92043 -12.759062,52.22179 -8.447415,77.81324 4.108922,24.38819 14.054557,46.8208 29.334466,66.16456 5.491374,6.95186 18.181573,19.41924 25.135533,24.69417 22.797496,17.2931 48.135906,26.96661 76.885136,29.35264 5.69018,0.47225 19.80003,0.21715 25.86009,-0.46754 z"
       id="path4168"
       inkscape:connector-curvature="0" />
  </g>
  <path
     inkscape:connector-curvature="0"
     d="m 232.76423,72.318976 0,186.565804 -162.587002,-24.19476 162.587002,54.8531 54.20163,-22.5907 0,-168.674704 0.0179,-0.0084 -0.0179,-0.03593 0,-3.322352 -54.20163,-22.592301 z"
     id="path951"
     style="fill:#000000;fill-opacity:1;stroke:#000000;stroke-width:0.89999998;stroke-opacity:1" />
</svg>
